<svg width="16" height="16" viewBox="0 0 16 16" fill="none" xmlns="http://www.w3.org/2000/svg">
<path opacity="0.1" d="M13.4124 13.1103L9.71376 8.0186L14.8054 4.31994C15.4461 3.85449 15.5901 2.94582 15.1247 2.30507C14.6592 1.66433 13.7506 1.52034 13.1098 1.98579L8.01817 5.68447L4.31951 0.592815C3.85406 -0.047931 2.9454 -0.191922 2.30465 0.273528C1.66391 0.738979 1.51991 1.64765 1.98537 2.2884L5.68404 7.38002L0.592395 11.0787C-0.0483511 11.5442 -0.192345 12.4528 0.273106 13.0936C0.738557 13.7343 1.64721 13.8783 2.28796 13.4129L7.3796 9.71417L11.0783 14.8058C11.5437 15.4466 12.4524 15.5906 13.0931 15.1251C13.7438 14.6612 13.8862 13.7624 13.4124 13.1103Z" fill="white"/>
</svg>
