<svg width="91" height="21" viewBox="0 0 91 21" fill="none" xmlns="http://www.w3.org/2000/svg">
<path d="M0.329092 0.701172H12.7726V3.01767H7.87309V16.0762H5.18759V3.01767H0.308594L0.329092 0.701172ZM12.2396 4.94467H14.5356V7.09717H14.5766C14.6586 6.78967 14.8021 6.50267 15.0071 6.21567C15.2121 5.92867 15.4581 5.66217 15.7656 5.43667C16.0526 5.19067 16.3806 5.00617 16.7496 4.86267C17.0981 4.71917 17.4671 4.63717 17.8361 4.63717C18.1231 4.63717 18.3281 4.65767 18.4306 4.65767C18.5331 4.67817 18.6561 4.69867 18.7586 4.69867V7.05617C18.5946 7.01517 18.4101 6.99466 18.2256 6.97416C18.0411 6.95366 17.8771 6.93317 17.6926 6.93317C17.2826 6.93317 16.8931 7.01516 16.5241 7.17916C16.1551 7.34316 15.8476 7.58916 15.5606 7.89666C15.2941 8.22466 15.0686 8.61417 14.9046 9.08567C14.7406 9.55717 14.6586 10.1107 14.6586 10.7257V16.0147H12.1986L12.2396 4.94467ZM30.0336 16.0762H27.6146V14.5182H27.5736C27.2661 15.0922 26.8151 15.5227 26.2206 15.8712C25.6261 16.2197 25.0111 16.3837 24.3961 16.3837C22.9406 16.3837 21.8746 16.0352 21.2186 15.2972C20.5626 14.5797 20.2346 13.4727 20.2346 12.0172V4.94467H22.6946V11.7712C22.6946 12.7552 22.8791 13.4522 23.2686 13.8417C23.6376 14.2517 24.1706 14.4567 24.8471 14.4567C25.3596 14.4567 25.7901 14.3747 26.1386 14.2107C26.4871 14.0467 26.7741 13.8417 26.9791 13.5752C27.2046 13.3087 27.3481 12.9807 27.4506 12.6117C27.5531 12.2427 27.5941 11.8327 27.5941 11.4022V4.94467H30.0541V16.0762H30.0336ZM34.2156 12.5092C34.2976 13.2267 34.5641 13.7187 35.0356 14.0262C35.5071 14.3132 36.0811 14.4567 36.7371 14.4567C36.9626 14.4567 37.2291 14.4362 37.5161 14.3952C37.8031 14.3542 38.0901 14.2927 38.3361 14.1902C38.6026 14.0877 38.8076 13.9442 38.9716 13.7392C39.1356 13.5342 39.2176 13.2882 39.1971 12.9807C39.1766 12.6732 39.0741 12.4067 38.8486 12.2017C38.6231 11.9967 38.3566 11.8532 38.0286 11.7097C37.7006 11.5867 37.3111 11.4842 36.8806 11.4022C36.4501 11.3202 36.0196 11.2177 35.5686 11.1152C35.1176 11.0127 34.6666 10.8897 34.2361 10.7462C33.8056 10.6027 33.4366 10.4182 33.0881 10.1517C32.7601 9.90566 32.4731 9.59817 32.2886 9.20867C32.0836 8.81917 31.9811 8.36816 31.9811 7.79416C31.9811 7.17916 32.1246 6.68717 32.4321 6.27717C32.7191 5.86717 33.1086 5.53917 33.5596 5.29317C34.0106 5.04717 34.5231 4.86267 35.0766 4.76017C35.6301 4.65767 36.1631 4.61667 36.6551 4.61667C37.2291 4.61667 37.7826 4.67817 38.2951 4.80117C38.8076 4.92417 39.2996 5.10867 39.7096 5.39567C40.1401 5.66217 40.4886 6.03116 40.7551 6.46166C41.0421 6.89216 41.2061 7.42517 41.2881 8.04017H38.7256C38.6026 7.44567 38.3361 7.05617 37.9261 6.85117C37.4956 6.64617 37.0241 6.54367 36.4706 6.54367C36.3066 6.54367 36.0811 6.56417 35.8556 6.58467C35.6096 6.62567 35.4046 6.66667 35.1791 6.74867C34.9741 6.83067 34.7896 6.95367 34.6461 7.09717C34.5026 7.24067 34.4206 7.44566 34.4206 7.69166C34.4206 7.99916 34.5231 8.22466 34.7281 8.40916C34.9331 8.59366 35.1996 8.73717 35.5481 8.88067C35.8761 9.00367 36.2656 9.10617 36.6961 9.18817C37.1266 9.27017 37.5776 9.37267 38.0286 9.47517C38.4796 9.57767 38.9101 9.70066 39.3406 9.84416C39.7711 9.98766 40.1606 10.1722 40.4886 10.4387C40.8166 10.6847 41.1036 10.9922 41.3086 11.3612C41.5136 11.7302 41.6161 12.2017 41.6161 12.7347C41.6161 13.3907 41.4726 13.9442 41.1651 14.4157C40.8576 14.8667 40.4681 15.2562 39.9966 15.5432C39.5251 15.8302 38.9716 16.0352 38.3976 16.1787C37.8031 16.3017 37.2291 16.3837 36.6551 16.3837C35.9581 16.3837 35.3021 16.3017 34.7076 16.1377C34.1131 15.9737 33.5801 15.7277 33.1496 15.4202C32.7191 15.0922 32.3706 14.7027 32.1246 14.2107C31.8786 13.7392 31.7351 13.1652 31.7146 12.4887H34.1951V12.5092H34.2156ZM42.3131 4.94467H44.1786V1.58267H46.6386V4.92417H48.8526V6.74867H46.6386V12.6937C46.6386 12.9602 46.6591 13.1652 46.6796 13.3702C46.7001 13.5547 46.7616 13.7187 46.8231 13.8417C46.9051 13.9647 47.0281 14.0672 47.1716 14.1287C47.3356 14.1902 47.5406 14.2312 47.8276 14.2312C47.9916 14.2312 48.1761 14.2312 48.3401 14.2107C48.5041 14.1902 48.6886 14.1697 48.8526 14.1287V16.0352C48.5861 16.0762 48.3196 16.0967 48.0531 16.1172C47.7866 16.1582 47.5406 16.1582 47.2536 16.1582C46.5976 16.1582 46.0851 16.0967 45.6956 15.9737C45.3061 15.8507 44.9986 15.6662 44.7731 15.4407C44.5476 15.1947 44.4041 14.9077 44.3221 14.5592C44.2401 14.2107 44.1991 13.7802 44.1786 13.3292V6.76916H42.3131V4.90367V4.94467ZM50.5746 4.94467H52.8911V6.46166H52.9321C53.2806 5.80567 53.7521 5.35467 54.3671 5.06767C54.9821 4.78067 55.6381 4.63717 56.3761 4.63717C57.2576 4.63717 58.0161 4.78067 58.6721 5.10867C59.3281 5.41617 59.8611 5.82617 60.2916 6.37967C60.7221 6.91267 61.0501 7.54817 61.2551 8.26567C61.4601 8.98317 61.5831 9.76216 61.5831 10.5617C61.5831 11.3202 61.4806 12.0377 61.2961 12.7347C61.0911 13.4317 60.8041 14.0672 60.4146 14.6002C60.0251 15.1332 59.5331 15.5637 58.9181 15.8917C58.3031 16.2197 57.6061 16.3837 56.7861 16.3837C56.4376 16.3837 56.0686 16.3427 55.7201 16.2812C55.3716 16.2197 55.0231 16.1172 54.6951 15.9737C54.3671 15.8302 54.0596 15.6457 53.7931 15.4202C53.5061 15.1947 53.2806 14.9282 53.0961 14.6412H53.0551V20.1967H50.5951V4.94467H50.5746ZM59.1641 10.5207C59.1641 10.0287 59.1026 9.53667 58.9591 9.06517C58.8361 8.59367 58.6311 8.18367 58.3646 7.81467C58.0981 7.44567 57.7701 7.15867 57.4011 6.93317C57.0116 6.70767 56.5606 6.60517 56.0686 6.60517C55.0436 6.60517 54.2646 6.95367 53.7316 7.67117C53.2191 8.38867 52.9526 9.35217 52.9526 10.5412C52.9526 11.1152 53.0141 11.6277 53.1576 12.0992C53.3011 12.5707 53.4856 12.9807 53.7726 13.3292C54.0391 13.6777 54.3671 13.9442 54.7566 14.1492C55.1461 14.3542 55.5766 14.4567 56.0891 14.4567C56.6631 14.4567 57.1141 14.3337 57.5036 14.1082C57.8931 13.8827 58.2006 13.5752 58.4671 13.2267C58.7131 12.8577 58.8976 12.4477 59.0001 11.9762C59.1026 11.4842 59.1641 11.0127 59.1641 10.5207ZM63.4896 0.701172H65.9496V3.01767H63.4896V0.701172ZM63.4896 4.94467H65.9496V16.0762H63.4896V4.94467ZM68.1431 0.701172H70.6031V16.0762H68.1431V0.701172ZM78.1061 16.3837C77.2246 16.3837 76.4251 16.2402 75.7281 15.9327C75.0311 15.6252 74.4571 15.2357 73.9651 14.7232C73.4936 14.2107 73.1246 13.5752 72.8786 12.8577C72.6326 12.1402 72.4891 11.3407 72.4891 10.5002C72.4891 9.65967 72.6121 8.88067 72.8786 8.16317C73.1246 7.44567 73.4936 6.83067 73.9651 6.29767C74.4366 5.78517 75.0311 5.37517 75.7281 5.08817C76.4251 4.80117 77.2246 4.63717 78.1061 4.63717C78.9876 4.63717 79.7871 4.78067 80.4841 5.08817C81.1811 5.37517 81.7551 5.78517 82.2471 6.29767C82.7186 6.81017 83.0876 7.44567 83.3336 8.16317C83.5796 8.88067 83.7231 9.65967 83.7231 10.5002C83.7231 11.3612 83.6001 12.1402 83.3336 12.8577C83.0671 13.5752 82.7186 14.1902 82.2471 14.7232C81.7756 15.2357 81.1811 15.6457 80.4841 15.9327C79.7871 16.2197 79.0081 16.3837 78.1061 16.3837ZM78.1061 14.4362C78.6391 14.4362 79.1311 14.3132 79.5206 14.0877C79.9306 13.8622 80.2381 13.5547 80.5046 13.1857C80.7711 12.8167 80.9556 12.3862 81.0786 11.9352C81.2016 11.4637 81.2631 10.9922 81.2631 10.5002C81.2631 10.0287 81.2016 9.55717 81.0786 9.08567C80.9556 8.61417 80.7711 8.20417 80.5046 7.83517C80.2381 7.46617 79.9101 7.17917 79.5206 6.95367C79.1106 6.72817 78.6391 6.60517 78.1061 6.60517C77.5731 6.60517 77.0811 6.72817 76.6916 6.95367C76.2816 7.17917 75.9741 7.48667 75.7076 7.83517C75.4411 8.20417 75.2566 8.61417 75.1336 9.08567C75.0106 9.55717 74.9491 10.0287 74.9491 10.5002C74.9491 10.9922 75.0106 11.4637 75.1336 11.9352C75.2566 12.4067 75.4411 12.8167 75.7076 13.1857C75.9741 13.5547 76.3021 13.8622 76.6916 14.0877C77.1016 14.3337 77.5731 14.4362 78.1061 14.4362ZM84.4611 4.94467H86.3266V1.58267H88.7866V4.92417H91.0006V6.74867H88.7866V12.6937C88.7866 12.9602 88.8071 13.1652 88.8276 13.3702C88.8481 13.5547 88.9096 13.7187 88.9711 13.8417C89.0531 13.9647 89.1761 14.0672 89.3196 14.1287C89.4836 14.1902 89.6886 14.2312 89.9756 14.2312C90.1396 14.2312 90.3241 14.2312 90.4881 14.2107C90.6521 14.1902 90.8366 14.1697 91.0006 14.1287V16.0352C90.7341 16.0762 90.4676 16.0967 90.2011 16.1172C89.9346 16.1582 89.6886 16.1582 89.4016 16.1582C88.7456 16.1582 88.2331 16.0967 87.8436 15.9737C87.454 15.8507 87.1466 15.6662 86.9211 15.4407C86.6956 15.1947 86.5521 14.9077 86.4701 14.5592C86.3881 14.2107 86.3471 13.7802 86.3266 13.3292V6.76916H84.4611V4.90367V4.94467Z" fill="black"/>
</svg>
