<svg width="208" height="206" viewBox="0 0 208 206" fill="none" xmlns="http://www.w3.org/2000/svg">
<g filter="url(#filter0_d_1_16838)">
<g filter="url(#filter1_d_1_16838)">
<rect y="0.0898438" width="206.987" height="205.48" rx="16.7593" fill="white"/>
<rect x="0.138919" y="0.228763" width="206.709" height="205.202" rx="16.6204" stroke="#EDF2F7" stroke-width="0.277838"/>
</g>
<path d="M82.876 184.147V184.619H79.6136V184.281L81.6356 181.152H82.1038L81.6014 182.057L80.2648 184.147H82.876ZM82.2465 181.152V185.667H81.6728V181.152H82.2465ZM84.7678 185.667H83.825L83.8312 185.18H84.7678C85.0903 185.18 85.359 185.113 85.5741 184.979C85.7891 184.842 85.9503 184.652 86.0578 184.408C86.1674 184.162 86.2222 183.875 86.2222 183.546V183.27C86.2222 183.011 86.1912 182.782 86.1292 182.581C86.0671 182.379 85.9762 182.208 85.8563 182.07C85.7364 181.929 85.5896 181.823 85.4159 181.75C85.2443 181.678 85.0469 181.642 84.8236 181.642H83.8064V181.152H84.8236C85.1192 181.152 85.389 181.201 85.633 181.301C85.8769 181.398 86.0868 181.539 86.2625 181.725C86.4403 181.909 86.5768 182.133 86.6719 182.395C86.767 182.656 86.8145 182.949 86.8145 183.276V183.546C86.8145 183.872 86.767 184.167 86.6719 184.43C86.5768 184.69 86.4393 184.912 86.2594 185.096C86.0816 185.28 85.8666 185.422 85.6144 185.521C85.3642 185.618 85.082 185.667 84.7678 185.667ZM84.1444 181.152V185.667H83.5459V181.152H84.1444Z" fill="#828282"/>
<path d="M114.52 184.199L114.061 184.081L114.287 181.832H116.604V182.363H114.774L114.638 183.591C114.72 183.543 114.825 183.499 114.951 183.457C115.079 183.416 115.226 183.395 115.391 183.395C115.6 183.395 115.787 183.432 115.953 183.504C116.118 183.574 116.259 183.675 116.374 183.808C116.492 183.94 116.582 184.099 116.644 184.285C116.706 184.471 116.737 184.679 116.737 184.909C116.737 185.126 116.707 185.325 116.647 185.507C116.589 185.689 116.502 185.848 116.384 185.985C116.266 186.119 116.117 186.224 115.937 186.298C115.759 186.372 115.549 186.41 115.308 186.41C115.126 186.41 114.953 186.385 114.79 186.335C114.628 186.284 114.484 186.206 114.356 186.103C114.229 185.997 114.126 185.867 114.045 185.712C113.967 185.555 113.917 185.371 113.897 185.16H114.442C114.467 185.329 114.517 185.472 114.591 185.588C114.666 185.704 114.763 185.792 114.883 185.851C115.005 185.909 115.146 185.938 115.308 185.938C115.444 185.938 115.565 185.915 115.67 185.867C115.776 185.819 115.865 185.751 115.937 185.662C116.009 185.573 116.064 185.466 116.101 185.34C116.141 185.214 116.16 185.072 116.16 184.915C116.16 184.772 116.141 184.64 116.101 184.518C116.062 184.396 116.003 184.29 115.925 184.199C115.848 184.108 115.754 184.037 115.642 183.988C115.531 183.936 115.403 183.91 115.258 183.91C115.066 183.91 114.92 183.936 114.821 183.988C114.724 184.039 114.623 184.11 114.52 184.199ZM118.737 186.348H117.795L117.801 185.861H118.737C119.06 185.861 119.329 185.794 119.544 185.659C119.759 185.523 119.92 185.333 120.028 185.089C120.137 184.843 120.192 184.555 120.192 184.226V183.95C120.192 183.692 120.161 183.463 120.099 183.262C120.037 183.059 119.946 182.889 119.826 182.75C119.706 182.61 119.559 182.503 119.386 182.431C119.214 182.358 119.017 182.322 118.793 182.322H117.776V181.832H118.793C119.089 181.832 119.359 181.882 119.603 181.981C119.847 182.078 120.057 182.22 120.232 182.406C120.41 182.59 120.547 182.813 120.642 183.076C120.737 183.336 120.784 183.63 120.784 183.957V184.226C120.784 184.553 120.737 184.848 120.642 185.11C120.547 185.371 120.409 185.593 120.229 185.777C120.051 185.961 119.836 186.103 119.584 186.202C119.334 186.299 119.052 186.348 118.737 186.348ZM118.114 181.832V186.348H117.516V181.832H118.114Z" fill="#828282"/>
<path d="M149.967 181.826H150.016V182.313H149.967C149.663 182.313 149.409 182.363 149.204 182.462C148.999 182.559 148.837 182.69 148.717 182.856C148.597 183.019 148.51 183.203 148.456 183.408C148.405 183.612 148.379 183.82 148.379 184.031V184.695C148.379 184.895 148.403 185.073 148.45 185.228C148.498 185.381 148.563 185.51 148.646 185.616C148.728 185.721 148.821 185.801 148.925 185.855C149.03 185.908 149.14 185.935 149.253 185.935C149.386 185.935 149.504 185.91 149.607 185.861C149.71 185.809 149.797 185.738 149.867 185.647C149.94 185.554 149.995 185.444 150.032 185.318C150.069 185.192 150.088 185.053 150.088 184.903C150.088 184.768 150.071 184.639 150.038 184.515C150.005 184.389 149.954 184.277 149.886 184.18C149.818 184.081 149.732 184.003 149.629 183.947C149.527 183.889 149.406 183.861 149.266 183.861C149.107 183.861 148.958 183.9 148.819 183.978C148.683 184.055 148.57 184.156 148.481 184.282C148.394 184.406 148.345 184.542 148.332 184.689L148.028 184.685C148.057 184.454 148.111 184.256 148.19 184.093C148.27 183.928 148.37 183.793 148.487 183.69C148.607 183.585 148.741 183.508 148.888 183.46C149.036 183.411 149.194 183.386 149.359 183.386C149.584 183.386 149.779 183.428 149.942 183.513C150.105 183.598 150.24 183.712 150.345 183.854C150.451 183.995 150.528 184.154 150.578 184.332C150.629 184.508 150.655 184.689 150.655 184.875C150.655 185.088 150.625 185.287 150.565 185.473C150.505 185.659 150.415 185.823 150.295 185.963C150.178 186.104 150.032 186.213 149.858 186.292C149.685 186.37 149.483 186.41 149.253 186.41C149.01 186.41 148.797 186.36 148.615 186.261C148.433 186.16 148.282 186.025 148.162 185.858C148.042 185.69 147.952 185.504 147.892 185.299C147.832 185.095 147.802 184.887 147.802 184.676V184.406C147.802 184.088 147.834 183.776 147.898 183.47C147.962 183.164 148.073 182.887 148.23 182.639C148.389 182.391 148.609 182.193 148.891 182.046C149.172 181.9 149.53 181.826 149.967 181.826ZM152.708 186.348H151.765L151.772 185.861H152.708C153.031 185.861 153.299 185.794 153.514 185.659C153.73 185.523 153.891 185.333 153.998 185.089C154.108 184.843 154.163 184.555 154.163 184.226V183.95C154.163 183.692 154.132 183.463 154.07 183.262C154.008 183.059 153.917 182.889 153.797 182.75C153.677 182.61 153.53 182.503 153.356 182.431C153.185 182.358 152.987 182.322 152.764 182.322H151.747V181.832H152.764C153.06 181.832 153.329 181.882 153.573 181.981C153.817 182.078 154.027 182.22 154.203 182.406C154.381 182.59 154.517 182.813 154.612 183.076C154.707 183.336 154.755 183.63 154.755 183.957V184.226C154.755 184.553 154.707 184.848 154.612 185.11C154.517 185.371 154.38 185.593 154.2 185.777C154.022 185.961 153.807 186.103 153.555 186.202C153.305 186.299 153.022 186.348 152.708 186.348ZM152.085 181.832V186.348H151.486V181.832H152.085Z" fill="#828282"/>
<path d="M182.089 181.832V182.155L180.219 186.348H179.615L181.482 182.304H179.038V181.832H182.089ZM184.114 186.348H183.172L183.178 185.861H184.114C184.437 185.861 184.706 185.794 184.921 185.659C185.136 185.523 185.297 185.333 185.405 185.089C185.514 184.843 185.569 184.555 185.569 184.226V183.95C185.569 183.692 185.538 183.463 185.476 183.262C185.414 183.059 185.323 182.889 185.203 182.75C185.083 182.61 184.936 182.503 184.763 182.431C184.591 182.358 184.394 182.322 184.17 182.322H183.153V181.832H184.17C184.466 181.832 184.736 181.882 184.98 181.981C185.224 182.078 185.433 182.22 185.609 182.406C185.787 182.59 185.923 182.813 186.019 183.076C186.114 183.336 186.161 183.63 186.161 183.957V184.226C186.161 184.553 186.114 184.848 186.019 185.11C185.923 185.371 185.786 185.593 185.606 185.777C185.428 185.961 185.213 186.103 184.961 186.202C184.711 186.299 184.429 186.348 184.114 186.348ZM183.491 181.832V186.348H182.893V181.832H183.491Z" fill="#828282"/>
<rect x="29.2422" y="174.903" width="27.7739" height="19.6592" rx="9.82962" fill="#E7E7E7" fill-opacity="0.92"/>
<path d="M41.8471 185.955V186.652H38.7584V186.057L40.219 184.491C40.3658 184.327 40.4816 184.184 40.5664 184.06C40.6511 183.934 40.7121 183.821 40.7493 183.722C40.7886 183.62 40.8082 183.524 40.8082 183.433C40.8082 183.297 40.7855 183.18 40.74 183.083C40.6945 182.984 40.6273 182.907 40.5384 182.853C40.4516 182.8 40.3441 182.773 40.2159 182.773C40.0795 182.773 39.9616 182.806 39.8624 182.872C39.7652 182.938 39.6908 183.03 39.6391 183.148C39.5895 183.266 39.5647 183.399 39.5647 183.548H38.6684C38.6684 183.279 38.7325 183.033 38.8607 182.81C38.9889 182.585 39.1698 182.406 39.4034 182.273C39.637 182.139 39.9141 182.072 40.2345 182.072C40.5508 182.072 40.8175 182.124 41.0346 182.227C41.2538 182.328 41.4192 182.475 41.5308 182.667C41.6445 182.858 41.7014 183.085 41.7014 183.35C41.7014 183.498 41.6776 183.644 41.6301 183.787C41.5825 183.927 41.5143 184.068 41.4254 184.209C41.3385 184.347 41.2331 184.488 41.1091 184.63C40.985 184.773 40.8475 184.921 40.6966 185.074L39.912 185.955H41.8471ZM43.8846 186.652H42.9015L42.9077 185.927H43.8846C44.1286 185.927 44.3343 185.872 44.5018 185.762C44.6692 185.651 44.7953 185.488 44.8801 185.275C44.9669 185.062 45.0103 184.805 45.0103 184.503V184.283C45.0103 184.051 44.9855 183.848 44.9359 183.672C44.8884 183.496 44.817 183.349 44.7219 183.229C44.6268 183.109 44.51 183.019 44.3715 182.959C44.233 182.897 44.0738 182.866 43.8939 182.866H42.8829V182.137H43.8939C44.1958 182.137 44.4718 182.189 44.7219 182.292C44.9742 182.393 45.1923 182.539 45.3763 182.729C45.5603 182.92 45.7019 183.147 45.8012 183.412C45.9025 183.674 45.9531 183.967 45.9531 184.289V184.503C45.9531 184.824 45.9025 185.116 45.8012 185.381C45.7019 185.645 45.5603 185.873 45.3763 186.063C45.1944 186.251 44.9762 186.397 44.7219 186.5C44.4697 186.602 44.1906 186.652 43.8846 186.652ZM43.4287 182.137V186.652H42.4984V182.137H43.4287Z" fill="#151515"/>
<path d="M0.0742188 144.672C11.1442 144.672 12.2155 159.085 23.9997 159.085C35.7839 159.085 32.9271 118.121 43.9972 118.121C55.0672 118.121 48.9965 83.6056 64.3517 83.6056C79.7069 83.6056 72.5649 118.121 86.4917 118.121C100.418 118.121 98.2759 77.8297 107.203 77.8297C116.131 77.8297 113.631 101.812 124.344 101.812C135.057 101.812 130.058 62.2559 141.485 62.2559C152.912 62.2559 151.84 79.5225 162.196 79.5225C172.552 79.5225 173.623 99.5359 187.907 99.5359C202.191 99.5359 193.264 121.843 206.833 121.843" stroke="#6C5FBC" stroke-width="1.98779" stroke-linecap="round" stroke-linejoin="round"/>
<path d="M172.172 83.2441C173.992 83.2441 175.583 84.8346 175.583 86.9434C175.583 89.052 173.992 90.6426 172.172 90.6426C170.352 90.6423 168.762 89.0518 168.762 86.9434C168.762 84.8348 170.352 83.2444 172.172 83.2441Z" fill="#C5BFED" stroke="#6C5FBC" stroke-width="2.22012"/>
<rect x="171.556" y="65.0459" width="25.6489" height="11.9084" rx="5.95422" fill="#6C5FBC"/>
<path d="M180.199 71.7623C180.199 71.9547 180.149 72.136 180.049 72.3062C179.953 72.4728 179.808 72.6115 179.616 72.7225C179.427 72.8298 179.203 72.8927 178.944 72.9112V73.3608H178.589V72.9057C178.219 72.8724 177.921 72.7614 177.696 72.5727C177.47 72.3803 177.353 72.1212 177.346 71.7956H178.178C178.201 72.062 178.338 72.223 178.589 72.2785V71.2184C178.323 71.1518 178.108 71.0852 177.945 71.0186C177.783 70.952 177.642 70.8447 177.524 70.6967C177.405 70.5487 177.346 70.347 177.346 70.0917C177.346 69.7698 177.461 69.5071 177.69 69.3035C177.923 69.1 178.223 68.9835 178.589 68.9539V68.5043H178.944V68.9539C179.3 68.9835 179.583 69.0908 179.794 69.2758C180.008 69.4608 180.128 69.7161 180.154 70.0417H179.316C179.305 69.9344 179.266 69.8419 179.2 69.7642C179.137 69.6828 179.052 69.6255 178.944 69.5922V70.6412C179.222 70.7115 179.44 70.7799 179.599 70.8465C179.762 70.9094 179.903 71.0149 180.021 71.1629C180.14 71.3072 180.199 71.507 180.199 71.7623ZM178.156 70.0528C178.156 70.1749 178.193 70.2748 178.267 70.3525C178.341 70.4266 178.449 70.4876 178.589 70.5357V69.5755C178.456 69.594 178.351 69.644 178.273 69.7254C178.195 69.8068 178.156 69.9159 178.156 70.0528ZM178.944 72.2896C179.085 72.2637 179.194 72.2063 179.272 72.1175C179.353 72.0287 179.394 71.9214 179.394 71.7956C179.394 71.6735 179.355 71.5755 179.277 71.5015C179.2 71.4275 179.089 71.3664 178.944 71.3183V72.2896ZM180.944 72.0898V71.4793L182.759 68.8817H183.664V71.4127H184.152V72.0898H183.664V72.8779H182.887V72.0898H180.944ZM182.937 69.7143L181.799 71.4127H182.937V69.7143ZM184.647 70.8021C184.647 70.162 184.762 69.6606 184.991 69.298C185.224 68.9354 185.609 68.7541 186.146 68.7541C186.682 68.7541 187.065 68.9354 187.294 69.298C187.528 69.6606 187.644 70.162 187.644 70.8021C187.644 71.446 187.528 71.951 187.294 72.3174C187.065 72.6837 186.682 72.8668 186.146 72.8668C185.609 72.8668 185.224 72.6837 184.991 72.3174C184.762 71.951 184.647 71.446 184.647 70.8021ZM186.878 70.8021C186.878 70.5283 186.86 70.2989 186.823 70.1139C186.789 69.9252 186.719 69.7716 186.612 69.6532C186.508 69.5348 186.353 69.4756 186.146 69.4756C185.938 69.4756 185.781 69.5348 185.674 69.6532C185.57 69.7716 185.5 69.9252 185.463 70.1139C185.43 70.2989 185.413 70.5283 185.413 70.8021C185.413 71.0833 185.43 71.3201 185.463 71.5126C185.496 71.7013 185.566 71.8548 185.674 71.9732C185.781 72.0879 185.938 72.1453 186.146 72.1453C186.353 72.1453 186.51 72.0879 186.617 71.9732C186.725 71.8548 186.795 71.7013 186.828 71.5126C186.862 71.3201 186.878 71.0833 186.878 70.8021ZM189.134 71.7401C189.164 71.9029 189.23 72.0287 189.334 72.1175C189.441 72.2026 189.584 72.2452 189.761 72.2452C189.991 72.2452 190.157 72.1508 190.261 71.9621C190.365 71.7697 190.416 71.4478 190.416 70.9964C190.331 71.1148 190.211 71.2073 190.056 71.2739C189.904 71.3405 189.739 71.3738 189.562 71.3738C189.325 71.3738 189.11 71.3257 188.918 71.2295C188.729 71.1296 188.579 70.9834 188.468 70.791C188.357 70.5949 188.302 70.3581 188.302 70.0806C188.302 69.6699 188.424 69.3442 188.668 69.1037C188.912 68.8595 189.245 68.7374 189.667 68.7374C190.193 68.7374 190.563 68.9058 190.777 69.2425C190.995 69.5792 191.105 70.0861 191.105 70.7633C191.105 71.2443 191.062 71.6384 190.977 71.9455C190.896 72.2526 190.753 72.4857 190.55 72.6448C190.35 72.8039 190.076 72.8835 189.728 72.8835C189.454 72.8835 189.221 72.8317 189.029 72.7281C188.836 72.6208 188.688 72.482 188.585 72.3118C188.485 72.1379 188.428 71.9473 188.413 71.7401H189.134ZM189.723 70.7411C189.915 70.7411 190.067 70.6819 190.178 70.5635C190.289 70.4451 190.344 70.2859 190.344 70.0861C190.344 69.8678 190.285 69.6995 190.167 69.5811C190.052 69.459 189.895 69.3979 189.695 69.3979C189.495 69.3979 189.336 69.4608 189.218 69.5866C189.103 69.7087 189.045 69.8715 189.045 70.075C189.045 70.2711 189.101 70.4321 189.212 70.5579C189.327 70.68 189.497 70.7411 189.723 70.7411Z" fill="white"/>
<line opacity="0.09" x1="0.327785" y1="138.766" x2="206.306" y2="138.766" stroke="#6C5FBC" stroke-width="0.585257" stroke-linecap="round"/>
<line opacity="0.09" x1="1.00943" y1="114.109" x2="206.988" y2="114.109" stroke="#6C5FBC" stroke-width="0.585257" stroke-linecap="round"/>
<line opacity="0.09" x1="0.327785" y1="88.7259" x2="206.306" y2="88.7259" stroke="#6C5FBC" stroke-width="0.585257" stroke-linecap="round"/>
<g clip-path="url(#clip0_1_16838)">
<rect x="25.873" y="13.2773" width="37.9194" height="18.2662" rx="9.13309" fill="#6C5FBC"/>
<path d="M42.1004 19.9861V24.4102H41.5186V21.1113L40.0482 24.4102H39.639L38.1622 21.1049V24.4102H37.5804V19.9861H38.207L39.8436 23.643L41.4803 19.9861H42.1004ZM42.8697 22.6456C42.8697 22.2876 42.9421 21.9744 43.0871 21.7058C43.232 21.4331 43.4301 21.2221 43.6816 21.0729C43.9373 20.9238 44.2208 20.8492 44.5319 20.8492C44.8388 20.8492 45.1052 20.9152 45.3311 21.0474C45.5569 21.1795 45.7253 21.3457 45.8361 21.546V20.9067H46.4243V24.4102H45.8361V23.7581C45.721 23.9626 45.5484 24.1331 45.3183 24.2695C45.0924 24.4016 44.8281 24.4677 44.5255 24.4677C44.2144 24.4677 43.9331 24.391 43.6816 24.2375C43.4301 24.0841 43.232 23.8689 43.0871 23.5918C42.9421 23.3148 42.8697 22.9994 42.8697 22.6456ZM45.8361 22.652C45.8361 22.3878 45.7828 22.1576 45.6763 21.9616C45.5697 21.7655 45.4248 21.6163 45.2415 21.5141C45.0625 21.4075 44.8643 21.3542 44.647 21.3542C44.4296 21.3542 44.2314 21.4054 44.0524 21.5077C43.8734 21.61 43.7306 21.7591 43.6241 21.9552C43.5175 22.1512 43.4642 22.3814 43.4642 22.6456C43.4642 22.9142 43.5175 23.1486 43.6241 23.3489C43.7306 23.5449 43.8734 23.6963 44.0524 23.8028C44.2314 23.9051 44.4296 23.9562 44.647 23.9562C44.8643 23.9562 45.0625 23.9051 45.2415 23.8028C45.4248 23.6963 45.5697 23.5449 45.6763 23.3489C45.7828 23.1486 45.8361 22.9163 45.8361 22.652ZM47.7079 20.3377C47.5971 20.3377 47.5033 20.2994 47.4266 20.2226C47.3499 20.1459 47.3115 20.0522 47.3115 19.9413C47.3115 19.8305 47.3499 19.7368 47.4266 19.66C47.5033 19.5833 47.5971 19.545 47.7079 19.545C47.8145 19.545 47.904 19.5833 47.9764 19.66C48.0531 19.7368 48.0915 19.8305 48.0915 19.9413C48.0915 20.0522 48.0531 20.1459 47.9764 20.2226C47.904 20.2994 47.8145 20.3377 47.7079 20.3377ZM47.9892 20.9067V24.4102H47.4074V20.9067H47.9892ZM50.6877 20.8428C51.1139 20.8428 51.4592 20.9728 51.7234 21.2328C51.9877 21.4885 52.1198 21.8593 52.1198 22.3452V24.4102H51.5444V22.4283C51.5444 22.0788 51.457 21.8124 51.2823 21.6291C51.1075 21.4416 50.8689 21.3478 50.5662 21.3478C50.2594 21.3478 50.0143 21.4437 49.831 21.6355C49.652 21.8273 49.5625 22.1065 49.5625 22.473V24.4102H48.9807V20.9067H49.5625V21.4054C49.6776 21.2264 49.8332 21.0878 50.0292 20.9898C50.2295 20.8918 50.449 20.8428 50.6877 20.8428Z" fill="white"/>
<path d="M82.6835 19.6368L81.2998 24.4111H80.6012L79.4915 20.5684L78.3407 24.4111L77.6489 24.418L76.3132 19.6368H76.9776L78.0188 23.6851L79.1695 19.6368H79.8682L80.9642 23.6714L82.0122 19.6368H82.6835ZM86.859 22.3904C86.859 22.5092 86.8522 22.6347 86.8385 22.7672H83.8383C83.8611 23.1371 83.9867 23.427 84.215 23.6371C84.4479 23.8426 84.7288 23.9453 85.0575 23.9453C85.327 23.9453 85.5507 23.8837 85.7288 23.7604C85.9115 23.6325 86.0394 23.4636 86.1124 23.2535H86.7837C86.6832 23.6143 86.4823 23.9088 86.1809 24.1371C85.8795 24.3609 85.5051 24.4728 85.0575 24.4728C84.7014 24.4728 84.3817 24.3929 84.0986 24.233C83.82 24.0732 83.6008 23.8472 83.441 23.5549C83.2812 23.2581 83.2012 22.9156 83.2012 22.5274C83.2012 22.1393 83.2789 21.7991 83.4341 21.5068C83.5894 21.2146 83.8063 20.9908 84.0849 20.8355C84.368 20.6757 84.6922 20.5958 85.0575 20.5958C85.4137 20.5958 85.7288 20.6734 86.0028 20.8287C86.2768 20.9839 86.4869 21.1986 86.633 21.4726C86.7837 21.742 86.859 22.0479 86.859 22.3904ZM86.2152 22.2603C86.2152 22.0228 86.1626 21.8196 86.0576 21.6507C85.9526 21.4771 85.8087 21.347 85.6261 21.2602C85.448 21.1689 85.2493 21.1232 85.0301 21.1232C84.7151 21.1232 84.4456 21.2237 84.2219 21.4246C84.0027 21.6255 83.8771 21.9041 83.8451 22.2603H86.2152ZM91.1752 22.3904C91.1752 22.5092 91.1684 22.6347 91.1547 22.7672H88.1545C88.1773 23.1371 88.3029 23.427 88.5312 23.6371C88.7641 23.8426 89.0449 23.9453 89.3737 23.9453C89.6432 23.9453 89.8669 23.8837 90.045 23.7604C90.2277 23.6325 90.3555 23.4636 90.4286 23.2535H91.0999C90.9994 23.6143 90.7985 23.9088 90.4971 24.1371C90.1957 24.3609 89.8213 24.4728 89.3737 24.4728C89.0175 24.4728 88.6979 24.3929 88.4148 24.233C88.1362 24.0732 87.917 23.8472 87.7572 23.5549C87.5973 23.2581 87.5174 22.9156 87.5174 22.5274C87.5174 22.1393 87.5951 21.7991 87.7503 21.5068C87.9056 21.2146 88.1225 20.9908 88.4011 20.8355C88.6842 20.6757 89.0084 20.5958 89.3737 20.5958C89.7299 20.5958 90.045 20.6734 90.319 20.8287C90.593 20.9839 90.8031 21.1986 90.9492 21.4726C91.0999 21.742 91.1752 22.0479 91.1752 22.3904ZM90.5313 22.2603C90.5313 22.0228 90.4788 21.8196 90.3738 21.6507C90.2688 21.4771 90.1249 21.347 89.9423 21.2602C89.7642 21.1689 89.5655 21.1232 89.3463 21.1232C89.0312 21.1232 88.7618 21.2237 88.5381 21.4246C88.3189 21.6255 88.1933 21.9041 88.1613 22.2603H90.5313ZM94.1626 24.4111L92.6898 22.7535V24.4111H92.0665V19.3423H92.6898V22.3219L94.1352 20.6574H95.0051L93.2378 22.5274L95.0119 24.4111H94.1626ZM96.2836 19.3423V24.4111H95.6603V19.3423H96.2836ZM100.648 20.6574L98.3871 26.1784H97.7432L98.483 24.37L96.9692 20.6574H97.661L98.8392 23.6988L100.004 20.6574H100.648Z" fill="#828282"/>
<path d="M124.084 19.6711V24.4111H123.46V20.8766L121.885 24.4111H121.446L119.864 20.8698V24.4111H119.241V19.6711H119.912L121.666 23.5892L123.419 19.6711H124.084ZM126.846 24.4728C126.495 24.4728 126.175 24.3929 125.887 24.233C125.604 24.0732 125.381 23.8472 125.216 23.5549C125.056 23.2581 124.976 22.9156 124.976 22.5274C124.976 22.1438 125.059 21.8059 125.223 21.5137C125.392 21.2168 125.62 20.9908 125.908 20.8355C126.196 20.6757 126.518 20.5958 126.874 20.5958C127.23 20.5958 127.552 20.6757 127.84 20.8355C128.127 20.9908 128.353 21.2146 128.518 21.5068C128.687 21.7991 128.771 22.1393 128.771 22.5274C128.771 22.9156 128.684 23.2581 128.511 23.5549C128.342 23.8472 128.111 24.0732 127.819 24.233C127.527 24.3929 127.203 24.4728 126.846 24.4728ZM126.846 23.9248C127.07 23.9248 127.28 23.8723 127.477 23.7673C127.673 23.6622 127.83 23.5047 127.949 23.2946C128.072 23.0846 128.134 22.8288 128.134 22.5274C128.134 22.226 128.075 21.9703 127.956 21.7603C127.837 21.5502 127.682 21.3949 127.49 21.2945C127.298 21.1894 127.091 21.1369 126.867 21.1369C126.639 21.1369 126.429 21.1894 126.237 21.2945C126.05 21.3949 125.899 21.5502 125.785 21.7603C125.67 21.9703 125.613 22.226 125.613 22.5274C125.613 22.8334 125.668 23.0914 125.778 23.3015C125.892 23.5115 126.043 23.6691 126.23 23.7741C126.417 23.8746 126.623 23.9248 126.846 23.9248ZM131.488 20.5889C131.945 20.5889 132.315 20.7282 132.598 21.0068C132.881 21.2808 133.022 21.6781 133.022 22.1986V24.4111H132.406V22.2877C132.406 21.9132 132.312 21.6278 132.125 21.4315C131.938 21.2305 131.682 21.1301 131.358 21.1301C131.029 21.1301 130.767 21.2328 130.57 21.4383C130.378 21.6438 130.283 21.9429 130.283 22.3356V24.4111H129.659V20.6574H130.283V21.1917C130.406 20.9999 130.573 20.8515 130.783 20.7465C130.997 20.6415 131.232 20.5889 131.488 20.5889ZM134.87 21.1712V23.3837C134.87 23.5663 134.908 23.6965 134.986 23.7741C135.064 23.8472 135.198 23.8837 135.39 23.8837H135.849V24.4111H135.287C134.94 24.4111 134.68 24.3312 134.506 24.1714C134.333 24.0116 134.246 23.749 134.246 23.3837V21.1712H133.76V20.6574H134.246V19.7122H134.87V20.6574H135.849V21.1712H134.87ZM137.296 19.3423V24.4111H136.673V19.3423H137.296ZM141.66 20.6574L139.4 26.1784H138.756L139.496 24.37L137.982 20.6574H138.674L139.852 23.6988L141.016 20.6574H141.66Z" fill="#828282"/>
<path d="M163.175 19.6368L161.62 22.6096V24.4111H160.997V22.6096L159.435 19.6368H160.127L161.305 22.0548L162.483 19.6368H163.175ZM167.326 22.3904C167.326 22.5092 167.319 22.6347 167.305 22.7672H164.305C164.328 23.1371 164.453 23.427 164.682 23.6371C164.915 23.8426 165.196 23.9453 165.524 23.9453C165.794 23.9453 166.018 23.8837 166.196 23.7604C166.378 23.6325 166.506 23.4636 166.579 23.2535H167.25C167.15 23.6143 166.949 23.9088 166.648 24.1371C166.346 24.3609 165.972 24.4728 165.524 24.4728C165.168 24.4728 164.848 24.3929 164.565 24.233C164.287 24.0732 164.068 23.8472 163.908 23.5549C163.748 23.2581 163.668 22.9156 163.668 22.5274C163.668 22.1393 163.746 21.7991 163.901 21.5068C164.056 21.2146 164.273 20.9908 164.552 20.8355C164.835 20.6757 165.159 20.5958 165.524 20.5958C165.881 20.5958 166.196 20.6734 166.47 20.8287C166.744 20.9839 166.954 21.1986 167.1 21.4726C167.25 21.742 167.326 22.0479 167.326 22.3904ZM166.682 22.2603C166.682 22.0228 166.629 21.8196 166.524 21.6507C166.419 21.4771 166.276 21.347 166.093 21.2602C165.915 21.1689 165.716 21.1232 165.497 21.1232C165.182 21.1232 164.912 21.2237 164.689 21.4246C164.469 21.6255 164.344 21.9041 164.312 22.2603H166.682ZM167.984 22.5206C167.984 22.137 168.062 21.8014 168.217 21.5137C168.372 21.2214 168.585 20.9954 168.854 20.8355C169.128 20.6757 169.432 20.5958 169.765 20.5958C170.094 20.5958 170.379 20.6666 170.621 20.8081C170.863 20.9497 171.044 21.1278 171.163 21.3424V20.6574H171.793V24.4111H171.163V23.7125C171.039 23.9316 170.854 24.1143 170.608 24.2604C170.366 24.402 170.083 24.4728 169.758 24.4728C169.425 24.4728 169.124 24.3906 168.854 24.2262C168.585 24.0618 168.372 23.8312 168.217 23.5344C168.062 23.2375 167.984 22.8996 167.984 22.5206ZM171.163 22.5274C171.163 22.2443 171.105 21.9977 170.991 21.7877C170.877 21.5776 170.722 21.4178 170.526 21.3082C170.334 21.194 170.121 21.1369 169.888 21.1369C169.656 21.1369 169.443 21.1917 169.251 21.3013C169.06 21.4109 168.907 21.5707 168.793 21.7808C168.678 21.9909 168.621 22.2375 168.621 22.5206C168.621 22.8083 168.678 23.0594 168.793 23.2741C168.907 23.4841 169.06 23.6462 169.251 23.7604C169.443 23.87 169.656 23.9248 169.888 23.9248C170.121 23.9248 170.334 23.87 170.526 23.7604C170.722 23.6462 170.877 23.4841 170.991 23.2741C171.105 23.0594 171.163 22.8106 171.163 22.5274ZM173.538 21.2671C173.648 21.0524 173.803 20.8858 174.004 20.767C174.209 20.6483 174.458 20.5889 174.75 20.5889V21.2328H174.586C173.887 21.2328 173.538 21.6118 173.538 22.3699V24.4111H172.915V20.6574H173.538V21.2671ZM176.162 19.3423V24.4111H175.538V19.3423H176.162ZM180.526 20.6574L178.265 26.1784H177.621L178.361 24.37L176.847 20.6574H177.539L178.717 23.6988L179.882 20.6574H180.526Z" fill="#828282"/>
</g>
</g>
<defs>
<filter id="filter0_d_1_16838" x="-15.4447" y="-44.6016" width="264.611" height="261.345" filterUnits="userSpaceOnUse" color-interpolation-filters="sRGB">
<feFlood flood-opacity="0" result="BackgroundImageFix"/>
<feColorMatrix in="SourceAlpha" type="matrix" values="0 0 0 0 0 0 0 0 0 0 0 0 0 0 0 0 0 0 127 0" result="hardAlpha"/>
<feOffset dx="13.4074" dy="-16.7593"/>
<feGaussianBlur stdDeviation="13.9661"/>
<feComposite in2="hardAlpha" operator="out"/>
<feColorMatrix type="matrix" values="0 0 0 0 0 0 0 0 0 0 0 0 0 0 0 0 0 0 0.15 0"/>
<feBlend mode="normal" in2="BackgroundImageFix" result="effect1_dropShadow_1_16838"/>
<feBlend mode="normal" in="SourceGraphic" in2="effect1_dropShadow_1_16838" result="shape"/>
</filter>
<filter id="filter1_d_1_16838" x="-23.5341" y="-18.7375" width="282.297" height="280.79" filterUnits="userSpaceOnUse" color-interpolation-filters="sRGB">
<feFlood flood-opacity="0" result="BackgroundImageFix"/>
<feColorMatrix in="SourceAlpha" type="matrix" values="0 0 0 0 0 0 0 0 0 0 0 0 0 0 0 0 0 0 127 0" result="hardAlpha"/>
<feOffset dx="14.1205" dy="18.8273"/>
<feGaussianBlur stdDeviation="18.8273"/>
<feColorMatrix type="matrix" values="0 0 0 0 0.101961 0 0 0 0 0.12549 0 0 0 0 0.172549 0 0 0 0.15 0"/>
<feBlend mode="normal" in2="BackgroundImageFix" result="effect1_dropShadow_1_16838"/>
<feBlend mode="normal" in="SourceGraphic" in2="effect1_dropShadow_1_16838" result="shape"/>
</filter>
<clipPath id="clip0_1_16838">
<rect x="25.873" y="13.2773" width="159.389" height="18.2662" rx="9.13309" fill="white"/>
</clipPath>
</defs>
</svg>
