<svg width="8" height="8" viewBox="0 0 8 8" fill="none" xmlns="http://www.w3.org/2000/svg">
<path opacity="0.1" d="M6.90242 6.74706L4.99896 4.12673L7.61928 2.22328C7.94903 1.98375 8.02314 1.51611 7.7836 1.18637C7.54407 0.856617 7.07644 0.782514 6.74669 1.02205L4.12636 2.92551L2.22291 0.305182C1.98337 -0.0245672 1.51575 -0.0986698 1.186 0.140866C0.856251 0.380402 0.782147 0.848033 1.02168 1.17778L2.92514 3.7981L0.304816 5.70156C-0.0249331 5.9411 -0.099037 6.40873 0.140499 6.73847C0.380035 7.06822 0.847659 7.14233 1.17741 6.90279L3.79773 4.99933L5.70119 7.61966C5.94073 7.94941 6.40835 8.02351 6.7381 7.78397C7.07293 7.54524 7.14623 7.0827 6.90242 6.74706Z" fill="white"/>
</svg>
