<svg width="35" height="35" viewBox="0 0 35 35" fill="none" xmlns="http://www.w3.org/2000/svg">
<path d="M21.6425 28.6965C23.9539 29.9616 25.9866 28.4283 25.5445 25.7449L24.7508 20.9269L28.113 17.5148C29.9829 15.6171 29.2104 13.1305 26.6226 12.7391L21.9761 12.0361L19.9085 7.67421C18.7503 5.23088 16.2355 5.2046 15.0751 7.65253L12.9972 12.0361L8.35074 12.7391C5.7666 13.13 4.98778 15.6144 6.86032 17.5148L10.2225 20.9269L9.4288 25.7449C8.98738 28.4245 11.0162 29.9634 13.3308 28.6965L17.4867 26.4218L21.6425 28.6965Z" fill="#6C5FBC"/>
<mask id="mask0_1_14254" style="mask-type:luminance" maskUnits="userSpaceOnUse" x="5" y="5" width="25" height="25">
<path d="M21.6425 28.6965C23.9539 29.9616 25.9866 28.4283 25.5445 25.7449L24.7508 20.9269L28.113 17.5148C29.9829 15.6171 29.2104 13.1305 26.6226 12.7391L21.9761 12.0361L19.9085 7.67421C18.7503 5.23088 16.2355 5.2046 15.0751 7.65253L12.9972 12.0361L8.35074 12.7391C5.7666 13.13 4.98778 15.6144 6.86032 17.5148L10.2225 20.9269L9.4288 25.7449C8.98738 28.4245 11.0162 29.9634 13.3308 28.6965L17.4867 26.4218L21.6425 28.6965Z" fill="white"/>
</mask>
<g mask="url(#mask0_1_14254)">
</g>
</svg>
